<svg xmlns="http://www.w3.org/2000/svg" width="71" height="17" fill="none"><path fill="#4F46E5" d="m.517 8.386.199-1.142c.648 0 1.123-.128 1.426-.386.307-.261.506-.686.597-1.273l.204-1.255c.11-.701.296-1.262.557-1.682.261-.425.587-.745.977-.96.39-.216.832-.36 1.324-.432a11.18 11.18 0 0 1 1.602-.108l-.3 1.807c-.451 0-.804.058-1.058.176-.25.113-.435.29-.556.528a3.16 3.16 0 0 0-.273.915l-.273 1.659a2.368 2.368 0 0 1-.295.824c-.152.257-.389.487-.71.687-.319.197-.756.354-1.313.472-.553.114-1.256.17-2.108.17Zm4.506 7.142c-.572 0-1.091-.036-1.557-.107-.466-.072-.856-.216-1.17-.432-.315-.216-.535-.536-.66-.96-.125-.421-.132-.982-.022-1.682l.198-1.262c.095-.583.038-1.006-.17-1.267-.204-.261-.634-.392-1.29-.392l.182-1.142c.852 0 1.534.059 2.046.176.515.114.9.271 1.153.472.258.197.419.426.483.687.068.258.08.533.034.824l-.278 1.66c-.061.367-.07.67-.029.908a.725.725 0 0 0 .387.529c.215.117.549.176 1 .176l-.307 1.812ZM.33 9.426l.363-2.182h2.034l-.363 2.182H.33Z"/><path fill="#EC4899" d="m20.078 8.284-.193 1.142c-.652 0-1.129.13-1.432.392-.303.261-.502.684-.596 1.267l-.2 1.262c-.11.7-.297 1.261-.562 1.681a2.662 2.662 0 0 1-.977.96 3.83 3.83 0 0 1-1.324.433 11.25 11.25 0 0 1-1.602.107l.307-1.812c.446 0 .795-.059 1.045-.176a1.13 1.13 0 0 0 .563-.529c.125-.238.215-.541.272-.909l.279-1.659c.045-.291.144-.566.295-.824.152-.261.387-.49.705-.687.322-.2.76-.358 1.312-.472.553-.117 1.256-.176 2.108-.176Zm-4.5-7.136c.572 0 1.091.036 1.557.108.466.072.856.216 1.17.431.315.216.535.536.66.96.125.421.132.982.022 1.683l-.204 1.255c-.091.584-.034 1.006.17 1.267.209.262.64.392 1.296.392l-.182 1.142c-.852 0-1.536-.056-2.051-.17-.515-.118-.902-.275-1.16-.472-.253-.2-.412-.43-.477-.687a2.065 2.065 0 0 1-.028-.824l.273-1.66c.064-.37.073-.675.028-.914a.706.706 0 0 0-.386-.528c-.216-.118-.548-.176-.995-.176l.307-1.807Zm4.693 6.096-.363 2.182h-2.034l.363-2.182h2.034Z"/><path fill="#000" d="M31.64 2.219h-1.245a1.216 1.216 0 0 0-.14-.43 1.092 1.092 0 0 0-.27-.323 1.188 1.188 0 0 0-.38-.205 1.456 1.456 0 0 0-.463-.07 1.38 1.38 0 0 0-.787.224 1.434 1.434 0 0 0-.52.647c-.123.283-.184.626-.184 1.029 0 .415.061.763.184 1.045.125.283.3.496.523.64a1.4 1.4 0 0 0 .776.215c.164 0 .317-.021.457-.065a1.098 1.098 0 0 0 .65-.5c.074-.121.125-.26.154-.415l1.244.006a2.322 2.322 0 0 1-.756 1.435 2.42 2.42 0 0 1-.767.46 2.82 2.82 0 0 1-1.002.168c-.52 0-.983-.118-1.392-.353a2.5 2.5 0 0 1-.966-1.02c-.235-.445-.353-.984-.353-1.616 0-.635.12-1.174.358-1.62.239-.444.563-.784.972-1.016.409-.235.87-.353 1.38-.353.338 0 .65.048.938.142.29.095.547.233.77.415.223.18.405.4.545.662.143.261.233.56.273.898Zm2.103 3.863c-.279 0-.527-.048-.744-.144a1.198 1.198 0 0 1-.518-.435c-.125-.193-.187-.434-.187-.722 0-.242.045-.446.134-.61.089-.165.21-.298.363-.398.154-.1.328-.176.523-.228.197-.05.403-.087.62-.107.253-.027.458-.052.613-.074a.87.87 0 0 0 .338-.108.237.237 0 0 0 .105-.21v-.018a.523.523 0 0 0-.17-.417c-.112-.099-.271-.148-.478-.148-.218 0-.39.048-.52.145a.667.667 0 0 0-.255.358l-1.12-.091c.057-.265.169-.494.336-.688.166-.195.381-.344.645-.448.265-.106.572-.16.92-.16.242 0 .474.029.696.086.224.057.421.145.594.264.174.12.311.273.412.46.1.186.15.408.15.668V6h-1.147v-.605h-.034a1.21 1.21 0 0 1-.282.36 1.301 1.301 0 0 1-.423.242 1.75 1.75 0 0 1-.571.085Zm.346-.835c.178 0 .336-.035.472-.105a.835.835 0 0 0 .321-.29A.747.747 0 0 0 35 4.44v-.463a.649.649 0 0 1-.157.068 2.85 2.85 0 0 1-.218.054 6.98 6.98 0 0 1-.245.043l-.221.031a1.499 1.499 0 0 0-.373.1.595.595 0 0 0-.247.184.45.45 0 0 0-.088.284c0 .165.06.291.18.378a.781.781 0 0 0 .46.128ZM37.14 6V1.636h1.173v.762h.046c.08-.271.213-.476.4-.614.188-.14.404-.21.648-.21a1.83 1.83 0 0 1 .38.042V2.69a2.116 2.116 0 0 0-.511-.065.968.968 0 0 0-.477.116.857.857 0 0 0-.449.79V6h-1.21ZM41.623.182V6h-1.21V.182h1.21Zm2.94 5.903c-.44 0-.822-.094-1.144-.281a1.925 1.925 0 0 1-.741-.79 2.544 2.544 0 0 1-.262-1.179c0-.45.087-.844.262-1.182.174-.339.421-.602.741-.79.322-.189.704-.283 1.145-.283.441 0 .822.094 1.142.284.322.187.57.45.744.79.174.337.262.73.262 1.181 0 .447-.088.84-.262 1.18a1.92 1.92 0 0 1-.744.789c-.32.187-.7.281-1.142.281Zm.007-.937c.2 0 .368-.057.502-.17.135-.116.236-.273.304-.472.07-.2.105-.426.105-.68 0-.253-.035-.48-.105-.678a1.057 1.057 0 0 0-.304-.472.744.744 0 0 0-.502-.173.77.77 0 0 0-.512.173c-.136.116-.24.273-.31.472a2.088 2.088 0 0 0-.102.679c0 .253.034.48.103.679.07.199.173.356.31.471a.78.78 0 0 0 .51.17Zm6.56-2.267-1.109.068a.572.572 0 0 0-.122-.256.648.648 0 0 0-.247-.184.84.84 0 0 0-.36-.071.886.886 0 0 0-.475.119c-.129.077-.193.182-.193.312 0 .104.041.193.125.265.083.071.226.13.429.173l.79.159c.424.087.74.227.948.42.209.194.313.447.313.762 0 .286-.085.537-.253.753a1.641 1.641 0 0 1-.688.505c-.29.12-.624.18-1.002.18-.578 0-1.038-.121-1.381-.362a1.406 1.406 0 0 1-.6-.988l1.19-.063c.037.176.124.31.262.404a.95.95 0 0 0 .531.136c.213 0 .383-.04.512-.122.13-.083.197-.19.199-.321a.334.334 0 0 0-.14-.27c-.09-.072-.23-.127-.42-.165l-.756-.15c-.426-.086-.743-.233-.952-.444a1.101 1.101 0 0 1-.31-.804c0-.28.077-.521.228-.724.154-.203.368-.359.645-.469.278-.11.604-.164.977-.164.551 0 .985.116 1.301.349.319.233.504.55.557.952ZM26.505 16v-5.818h2.33c.427 0 .784.063 1.07.19.286.127.501.303.645.529.144.223.216.48.216.772 0 .228-.045.427-.136.6-.091.17-.216.31-.375.42a1.539 1.539 0 0 1-.54.23v.057a1.328 1.328 0 0 1 1.097.673c.12.207.181.453.181.739 0 .309-.076.584-.23.827a1.55 1.55 0 0 1-.673.57c-.297.14-.664.211-1.1.211h-2.485Zm1.23-1.006h1.003c.342 0 .592-.065.75-.196a.657.657 0 0 0 .235-.528.782.782 0 0 0-.116-.426.791.791 0 0 0-.332-.29 1.139 1.139 0 0 0-.509-.105h-1.031v1.545Zm0-2.377h.912c.168 0 .318-.03.449-.089a.747.747 0 0 0 .312-.255.667.667 0 0 0 .117-.395.64.64 0 0 0-.225-.509c-.148-.128-.358-.193-.63-.193h-.935v1.44Zm6.025 3.468c-.45 0-.836-.09-1.16-.273a1.868 1.868 0 0 1-.744-.778c-.174-.337-.261-.736-.261-1.196 0-.449.087-.843.261-1.182.175-.339.42-.603.736-.792.318-.19.691-.285 1.12-.285.287 0 .555.047.803.14.25.09.468.228.654.412.187.183.333.415.437.693.104.276.157.6.157.972v.332h-3.685v-.75h2.545a.927.927 0 0 0-.113-.463.814.814 0 0 0-.316-.316.9.9 0 0 0-.463-.116.931.931 0 0 0-.488.128.896.896 0 0 0-.33.338.954.954 0 0 0-.122.469v.713c0 .216.04.402.12.56a.873.873 0 0 0 .343.363c.148.085.323.128.526.128.134 0 .257-.02.369-.057a.741.741 0 0 0 .469-.449l1.119.074a1.528 1.528 0 0 1-.35.704c-.174.2-.4.355-.676.466a2.55 2.55 0 0 1-.951.165Zm4.002-5.903V16h-1.21v-5.818h1.21Zm3.291 1.454v.91h-2.628v-.91h2.628Zm-2.031-1.045h1.21v4.068a.55.55 0 0 0 .051.261.276.276 0 0 0 .142.128.587.587 0 0 0 .216.037c.057 0 .114-.005.17-.014l.131-.025.19.9c-.06.019-.145.04-.255.065a2.03 2.03 0 0 1-.4.049 1.84 1.84 0 0 1-.768-.117 1.07 1.07 0 0 1-.508-.415c-.121-.187-.181-.424-.18-.71v-4.227ZM41.843 16v-4.364h1.173v.762h.045c.08-.271.213-.476.4-.614.188-.14.404-.21.648-.21a1.85 1.85 0 0 1 .381.043v1.073a2.112 2.112 0 0 0-.511-.065.968.968 0 0 0-.478.117.857.857 0 0 0-.448.79V16h-1.21Zm4.392.082c-.278 0-.526-.048-.744-.145a1.199 1.199 0 0 1-.517-.434c-.125-.193-.188-.434-.188-.722 0-.242.045-.446.134-.61.089-.165.21-.298.363-.398.154-.1.328-.176.523-.227a3.8 3.8 0 0 1 .62-.108c.253-.027.458-.052.613-.074a.87.87 0 0 0 .338-.108.237.237 0 0 0 .105-.21v-.018a.523.523 0 0 0-.17-.417c-.112-.099-.271-.148-.477-.148-.218 0-.392.048-.52.145a.667.667 0 0 0-.256.358l-1.12-.091a1.52 1.52 0 0 1 .336-.688c.166-.195.382-.344.645-.448.265-.106.572-.16.92-.16.243 0 .475.029.696.086.224.057.422.145.594.264.174.12.311.273.412.46.1.186.15.408.15.668V16h-1.147v-.605h-.034a1.21 1.21 0 0 1-.282.36 1.302 1.302 0 0 1-.423.242 1.75 1.75 0 0 1-.57.085Zm.347-.835c.178 0 .335-.035.471-.105a.836.836 0 0 0 .321-.29.748.748 0 0 0 .117-.412v-.463a.652.652 0 0 1-.157.069 2.853 2.853 0 0 1-.218.053 10.413 10.413 0 0 1-.466.074 1.479 1.479 0 0 0-.372.1.596.596 0 0 0-.247.184.45.45 0 0 0-.088.284c0 .165.06.291.178.378a.782.782 0 0 0 .46.128Zm4.26-1.77V16h-1.21v-4.364h1.153v.77h.05c.097-.254.26-.454.487-.602a1.47 1.47 0 0 1 .826-.225c.303 0 .568.067.793.2.225.132.4.321.526.568a1.9 1.9 0 0 1 .187.875V16h-1.21v-2.563c.002-.266-.066-.475-.205-.624-.138-.152-.328-.228-.57-.228a.869.869 0 0 0-.432.105.733.733 0 0 0-.29.307 1.064 1.064 0 0 0-.105.48Zm7.757 2.594c-.332 0-.632-.085-.9-.256a1.773 1.773 0 0 1-.637-.758c-.155-.335-.233-.746-.233-1.233 0-.5.08-.916.241-1.247.161-.334.375-.583.642-.748.27-.166.564-.25.884-.25.244 0 .448.042.61.125.165.082.298.184.398.307.103.122.18.24.233.358h.037v-2.187h1.208V16h-1.194v-.699h-.05a1.565 1.565 0 0 1-.242.36 1.198 1.198 0 0 1-.4.293 1.378 1.378 0 0 1-.597.117Zm.383-.963c.195 0 .36-.053.495-.16a1.01 1.01 0 0 0 .312-.45c.074-.194.11-.42.11-.68 0-.26-.035-.485-.107-.676a.97.97 0 0 0-.313-.443.795.795 0 0 0-.497-.156.785.785 0 0 0-.503.162.99.99 0 0 0-.31.448 1.93 1.93 0 0 0-.104.665c0 .254.035.478.105.674.072.193.175.344.31.454a.785.785 0 0 0 .502.162Zm5.083.977c-.448 0-.835-.09-1.159-.273a1.869 1.869 0 0 1-.744-.778c-.174-.337-.261-.736-.261-1.196 0-.449.087-.843.26-1.182.175-.339.42-.603.737-.792.318-.19.691-.285 1.119-.285.288 0 .556.047.804.14.25.09.468.228.653.412.188.183.334.415.438.693.104.276.156.6.156.972v.332h-3.684v-.75h2.545a.926.926 0 0 0-.114-.463.814.814 0 0 0-.315-.316.9.9 0 0 0-.463-.116.931.931 0 0 0-.489.128.895.895 0 0 0-.33.338.954.954 0 0 0-.121.469v.713c0 .216.04.402.119.56a.873.873 0 0 0 .344.363c.147.085.323.128.525.128.135 0 .258-.02.37-.057a.741.741 0 0 0 .469-.449l1.119.074a1.528 1.528 0 0 1-.35.704c-.174.2-.4.355-.676.466a2.55 2.55 0 0 1-.952.165Zm6.744-4.449L69.283 16H67.92l-1.526-4.364h1.279l.906 3.123h.045l.904-3.123h1.28Z"/><path fill="#EC4899" d="M55.315 16.074a.663.663 0 0 1-.483-.199.664.664 0 0 1-.199-.483.65.65 0 0 1 .2-.477.663.663 0 0 1 .482-.2c.182 0 .341.067.478.2a.642.642 0 0 1 .204.477c0 .125-.032.24-.096.344a.734.734 0 0 1-.248.247.651.651 0 0 1-.338.09Z"/></svg>