<svg width="71" height="17" viewBox="0 0 71 17" fill="none" xmlns="http://www.w3.org/2000/svg">
<path d="M0.517045 8.38636L0.715909 7.24432C1.36364 7.24432 1.83902 7.11553 2.14205 6.85795C2.44886 6.59659 2.64773 6.17235 2.73864 5.58523L2.94318 4.32955C3.05303 3.62879 3.23864 3.06818 3.5 2.64773C3.76136 2.22348 4.08712 1.90341 4.47727 1.6875C4.86742 1.47159 5.30871 1.32765 5.80114 1.25568C6.29735 1.18371 6.83144 1.14773 7.40341 1.14773L7.10227 2.95455C6.65152 2.95455 6.29924 3.01326 6.04545 3.13068C5.79545 3.24432 5.60985 3.42045 5.48864 3.65909C5.36742 3.89773 5.27652 4.20265 5.21591 4.57386L4.94318 6.23295C4.89773 6.52083 4.79924 6.79545 4.64773 7.05682C4.49621 7.31439 4.25947 7.54356 3.9375 7.74432C3.61932 7.94129 3.18182 8.09848 2.625 8.21591C2.07197 8.32955 1.36932 8.38636 0.517045 8.38636ZM5.02273 15.5284C4.45076 15.5284 3.93182 15.4924 3.46591 15.4205C3 15.3485 2.60985 15.2045 2.29545 14.9886C1.98106 14.7727 1.76136 14.4527 1.63636 14.0284C1.51136 13.608 1.50379 13.0473 1.61364 12.3466L1.8125 11.0852C1.9072 10.5019 1.85038 10.0795 1.64205 9.81818C1.4375 9.55682 1.00758 9.42614 0.352273 9.42614L0.534091 8.28409C1.38636 8.28409 2.06818 8.3428 2.57955 8.46023C3.0947 8.57386 3.47917 8.73106 3.73295 8.93182C3.99053 9.12879 4.15152 9.35795 4.21591 9.61932C4.28409 9.87689 4.29545 10.1515 4.25 10.4432L3.97159 12.1023C3.91098 12.4697 3.90152 12.7727 3.94318 13.0114C3.98864 13.25 4.11742 13.4261 4.32955 13.5398C4.54545 13.6572 4.87879 13.7159 5.32955 13.7159L5.02273 15.5284ZM0.329545 9.42614L0.693182 7.24432H2.72727L2.36364 9.42614H0.329545Z" fill="#818CF8"/>
<path d="M20.0781 8.28409L19.8849 9.42614C19.2334 9.42614 18.7562 9.55682 18.4531 9.81818C18.1501 10.0795 17.9512 10.5019 17.8565 11.0852L17.6577 12.3466C17.5478 13.0473 17.3603 13.608 17.0952 14.0284C16.8338 14.4527 16.508 14.7727 16.1179 14.9886C15.7315 15.2045 15.2902 15.3485 14.794 15.4205C14.3016 15.4924 13.7675 15.5284 13.1918 15.5284L13.4986 13.7159C13.9455 13.7159 14.294 13.6572 14.544 13.5398C14.7978 13.4261 14.9853 13.25 15.1065 13.0114C15.2315 12.7727 15.3224 12.4697 15.3793 12.1023L15.6577 10.4432C15.7031 10.1515 15.8016 9.87689 15.9531 9.61932C16.1046 9.35795 16.3395 9.12879 16.6577 8.93182C16.9796 8.73106 17.4171 8.57386 17.9702 8.46023C18.5232 8.3428 19.2259 8.28409 20.0781 8.28409ZM15.5781 1.14773C16.1501 1.14773 16.669 1.18371 17.1349 1.25568C17.6009 1.32765 17.991 1.47159 18.3054 1.6875C18.6198 1.90341 18.8395 2.22348 18.9645 2.64773C19.0895 3.06818 19.0971 3.62879 18.9872 4.32955L18.7827 5.58523C18.6918 6.16856 18.7486 6.59091 18.9531 6.85227C19.1615 7.11364 19.5933 7.24432 20.2486 7.24432L20.0668 8.38636C19.2145 8.38636 18.5308 8.32955 18.0156 8.21591C17.5005 8.09848 17.1141 7.94129 16.8565 7.74432C16.6027 7.54356 16.4437 7.31439 16.3793 7.05682C16.3149 6.79545 16.3054 6.52083 16.3509 6.23295L16.6236 4.57386C16.688 4.20265 16.6974 3.89773 16.652 3.65909C16.6103 3.42045 16.4815 3.24432 16.2656 3.13068C16.0497 3.01326 15.7183 2.95455 15.2713 2.95455L15.5781 1.14773ZM20.2713 7.24432L19.9077 9.42614H17.8736L18.2372 7.24432H20.2713Z" fill="#F472B6"/>
<path d="M31.6392 2.21875H30.3949C30.3722 2.05777 30.3258 1.91477 30.2557 1.78977C30.1856 1.66288 30.0956 1.55492 29.9858 1.46591C29.8759 1.37689 29.7491 1.30871 29.6051 1.26136C29.4631 1.21402 29.3087 1.19034 29.142 1.19034C28.8409 1.19034 28.5786 1.26515 28.3551 1.41477C28.1316 1.5625 27.9583 1.77841 27.8352 2.0625C27.7121 2.3447 27.6506 2.6875 27.6506 3.09091C27.6506 3.50568 27.7121 3.85417 27.8352 4.13636C27.9602 4.41856 28.1345 4.63163 28.358 4.77557C28.5814 4.91951 28.84 4.99148 29.1335 4.99148C29.2983 4.99148 29.4508 4.9697 29.5909 4.92614C29.733 4.88258 29.8589 4.81913 29.9688 4.7358C30.0786 4.65057 30.1695 4.54735 30.2415 4.42614C30.3153 4.30492 30.3665 4.16667 30.3949 4.01136L31.6392 4.01705C31.607 4.28409 31.5265 4.54167 31.3977 4.78977C31.2708 5.03598 31.0994 5.25663 30.8835 5.4517C30.6695 5.64489 30.4138 5.7983 30.1165 5.91193C29.821 6.02367 29.4867 6.07955 29.1136 6.07955C28.5947 6.07955 28.1307 5.96212 27.7216 5.72727C27.3144 5.49242 26.9924 5.15246 26.7557 4.70739C26.5208 4.26231 26.4034 3.72348 26.4034 3.09091C26.4034 2.45644 26.5227 1.91667 26.7614 1.47159C27 1.02652 27.3239 0.6875 27.733 0.454545C28.142 0.219697 28.6023 0.102273 29.1136 0.102273C29.4508 0.102273 29.7633 0.149621 30.0511 0.244318C30.3409 0.339015 30.5975 0.477273 30.821 0.659091C31.0445 0.839015 31.2263 1.05966 31.3665 1.32102C31.5085 1.58239 31.5994 1.88163 31.6392 2.21875ZM33.7429 6.08239C33.4645 6.08239 33.2164 6.03409 32.9986 5.9375C32.7808 5.83902 32.6084 5.69413 32.4815 5.50284C32.3565 5.30966 32.294 5.06913 32.294 4.78125C32.294 4.53883 32.3385 4.33523 32.4276 4.17045C32.5166 4.00568 32.6378 3.87311 32.7912 3.77273C32.9446 3.67235 33.1188 3.59659 33.3139 3.54545C33.5109 3.49432 33.7173 3.45833 33.9332 3.4375C34.187 3.41098 34.3916 3.38636 34.5469 3.36364C34.7022 3.33902 34.8149 3.30303 34.8849 3.25568C34.955 3.20833 34.9901 3.13826 34.9901 3.04545V3.02841C34.9901 2.84848 34.9332 2.70928 34.8196 2.6108C34.7079 2.51231 34.5488 2.46307 34.3423 2.46307C34.1245 2.46307 33.9512 2.51136 33.8224 2.60795C33.6937 2.70265 33.6084 2.82197 33.5668 2.96591L32.4474 2.875C32.5043 2.60985 32.616 2.38068 32.7827 2.1875C32.9493 1.99242 33.1643 1.8428 33.4276 1.73864C33.6927 1.63258 33.9995 1.57955 34.348 1.57955C34.5904 1.57955 34.8224 1.60795 35.044 1.66477C35.2675 1.72159 35.4654 1.80966 35.6378 1.92898C35.812 2.0483 35.9493 2.2017 36.0497 2.3892C36.1501 2.57481 36.2003 2.79735 36.2003 3.05682V6H35.0526V5.39489H35.0185C34.9484 5.53125 34.8546 5.65152 34.7372 5.75568C34.6198 5.85795 34.4787 5.93845 34.3139 5.99716C34.1491 6.05398 33.9588 6.08239 33.7429 6.08239ZM34.0895 5.24716C34.2675 5.24716 34.4247 5.21212 34.5611 5.14205C34.6974 5.07008 34.8045 4.97348 34.8821 4.85227C34.9598 4.73106 34.9986 4.59375 34.9986 4.44034V3.97727C34.9607 4.00189 34.9086 4.02462 34.8423 4.04545C34.7779 4.06439 34.705 4.08239 34.6236 4.09943C34.5421 4.11458 34.4607 4.12879 34.3793 4.14205C34.2978 4.15341 34.224 4.16383 34.1577 4.1733C34.0156 4.19413 33.8916 4.22727 33.7855 4.27273C33.6795 4.31818 33.5971 4.37973 33.5384 4.45739C33.4796 4.53314 33.4503 4.62784 33.4503 4.74148C33.4503 4.90625 33.5099 5.0322 33.6293 5.11932C33.7505 5.20455 33.9039 5.24716 34.0895 5.24716ZM37.1392 6V1.63636H38.3125V2.39773H38.358C38.4375 2.12689 38.571 1.92235 38.7585 1.78409C38.946 1.64394 39.1619 1.57386 39.4062 1.57386C39.4669 1.57386 39.5322 1.57765 39.6023 1.58523C39.6723 1.5928 39.7339 1.60322 39.7869 1.61648V2.69034C39.7301 2.6733 39.6515 2.65814 39.5511 2.64489C39.4508 2.63163 39.3589 2.625 39.2756 2.625C39.0975 2.625 38.9384 2.66383 38.7983 2.74148C38.66 2.81723 38.5502 2.9233 38.4688 3.05966C38.3892 3.19602 38.3494 3.35322 38.3494 3.53125V6H37.1392ZM41.6229 0.181818V6H40.4126V0.181818H41.6229ZM44.5639 6.08523C44.1226 6.08523 43.741 5.99148 43.419 5.80398C43.099 5.61458 42.8518 5.35133 42.6776 5.0142C42.5033 4.67519 42.4162 4.2822 42.4162 3.83523C42.4162 3.38447 42.5033 2.99053 42.6776 2.65341C42.8518 2.31439 43.099 2.05114 43.419 1.86364C43.741 1.67424 44.1226 1.57955 44.5639 1.57955C45.0052 1.57955 45.3859 1.67424 45.706 1.86364C46.0279 2.05114 46.276 2.31439 46.4503 2.65341C46.6245 2.99053 46.7116 3.38447 46.7116 3.83523C46.7116 4.2822 46.6245 4.67519 46.4503 5.0142C46.276 5.35133 46.0279 5.61458 45.706 5.80398C45.3859 5.99148 45.0052 6.08523 44.5639 6.08523ZM44.5696 5.14773C44.7704 5.14773 44.938 5.09091 45.0724 4.97727C45.2069 4.86174 45.3082 4.70455 45.3764 4.50568C45.4465 4.30682 45.4815 4.08049 45.4815 3.8267C45.4815 3.57292 45.4465 3.34659 45.3764 3.14773C45.3082 2.94886 45.2069 2.79167 45.0724 2.67614C44.938 2.56061 44.7704 2.50284 44.5696 2.50284C44.367 2.50284 44.1965 2.56061 44.0582 2.67614C43.9219 2.79167 43.8187 2.94886 43.7486 3.14773C43.6804 3.34659 43.6463 3.57292 43.6463 3.8267C43.6463 4.08049 43.6804 4.30682 43.7486 4.50568C43.8187 4.70455 43.9219 4.86174 44.0582 4.97727C44.1965 5.09091 44.367 5.14773 44.5696 5.14773ZM51.1293 2.88068L50.0213 2.94886C50.0024 2.85417 49.9616 2.76894 49.8991 2.69318C49.8366 2.61553 49.7543 2.55398 49.652 2.50852C49.5516 2.46117 49.4313 2.4375 49.2912 2.4375C49.1037 2.4375 48.9455 2.47727 48.8168 2.55682C48.688 2.63447 48.6236 2.73864 48.6236 2.86932C48.6236 2.97348 48.6652 3.06155 48.7486 3.13352C48.8319 3.20549 48.9749 3.26326 49.1776 3.30682L49.9673 3.46591C50.3916 3.55303 50.7079 3.69318 50.9162 3.88636C51.1245 4.07955 51.2287 4.33333 51.2287 4.64773C51.2287 4.93371 51.1444 5.18466 50.9759 5.40057C50.8092 5.61648 50.58 5.78504 50.2884 5.90625C49.9986 6.02557 49.6643 6.08523 49.2855 6.08523C48.7079 6.08523 48.2476 5.96496 47.9048 5.72443C47.5639 5.48201 47.3641 5.15246 47.3054 4.7358L48.4957 4.6733C48.5317 4.84943 48.6188 4.9839 48.7571 5.0767C48.8954 5.16761 49.0724 5.21307 49.2884 5.21307C49.5005 5.21307 49.6709 5.17235 49.7997 5.09091C49.9304 5.00758 49.9967 4.90057 49.9986 4.76989C49.9967 4.66004 49.9503 4.57008 49.8594 4.5C49.7685 4.42803 49.6283 4.37311 49.4389 4.33523L48.6832 4.18466C48.2571 4.09943 47.9399 3.9517 47.7315 3.74148C47.5251 3.53125 47.4219 3.26326 47.4219 2.9375C47.4219 2.6572 47.4976 2.41572 47.6491 2.21307C47.8026 2.01042 48.0175 1.85417 48.294 1.74432C48.5724 1.63447 48.8982 1.57955 49.2713 1.57955C49.8224 1.57955 50.2562 1.69602 50.5724 1.92898C50.8906 2.16193 51.0762 2.47917 51.1293 2.88068ZM26.5057 16V10.1818H28.8352C29.2633 10.1818 29.6203 10.2453 29.9062 10.3722C30.1922 10.4991 30.4072 10.6752 30.5511 10.9006C30.6951 11.1241 30.767 11.3816 30.767 11.6733C30.767 11.9006 30.7216 12.1004 30.6307 12.2727C30.5398 12.4432 30.4148 12.5833 30.2557 12.6932C30.0985 12.8011 29.9186 12.8778 29.7159 12.9233V12.9801C29.9375 12.9896 30.1449 13.0521 30.3381 13.1676C30.5331 13.2831 30.6913 13.4451 30.8125 13.6534C30.9337 13.8598 30.9943 14.1061 30.9943 14.392C30.9943 14.7008 30.9176 14.9763 30.7642 15.2188C30.6127 15.4593 30.3883 15.6496 30.0909 15.7898C29.7936 15.9299 29.4271 16 28.9915 16H26.5057ZM27.7358 14.9943H28.7386C29.0814 14.9943 29.3314 14.929 29.4886 14.7983C29.6458 14.6657 29.7244 14.4896 29.7244 14.2699C29.7244 14.1089 29.6856 13.9669 29.608 13.8438C29.5303 13.7206 29.4195 13.6241 29.2756 13.554C29.1335 13.4839 28.964 13.4489 28.767 13.4489H27.7358V14.9943ZM27.7358 12.6165H28.6477C28.8163 12.6165 28.9659 12.5871 29.0966 12.5284C29.2292 12.4678 29.3333 12.3826 29.4091 12.2727C29.4867 12.1629 29.5256 12.0312 29.5256 11.8778C29.5256 11.6676 29.4508 11.4981 29.3011 11.3693C29.1534 11.2405 28.9432 11.1761 28.6705 11.1761H27.7358V12.6165ZM33.7607 16.0852C33.3118 16.0852 32.9254 15.9943 32.6016 15.8125C32.2796 15.6288 32.0315 15.3693 31.8572 15.0341C31.683 14.697 31.5959 14.2983 31.5959 13.8381C31.5959 13.3892 31.683 12.9953 31.8572 12.6562C32.0315 12.3172 32.2768 12.053 32.593 11.8636C32.9112 11.6742 33.2843 11.5795 33.7124 11.5795C34.0002 11.5795 34.2682 11.6259 34.5163 11.7188C34.7663 11.8097 34.9841 11.947 35.1697 12.1307C35.3572 12.3144 35.5031 12.5455 35.6072 12.8239C35.7114 13.1004 35.7635 13.4242 35.7635 13.7955V14.1278H32.0788V13.3778H34.6243C34.6243 13.2036 34.5864 13.0492 34.5107 12.9148C34.4349 12.7803 34.3298 12.6752 34.1953 12.5994C34.0627 12.5218 33.9084 12.483 33.7322 12.483C33.5485 12.483 33.3857 12.5256 33.2436 12.6108C33.1035 12.6941 32.9936 12.8068 32.9141 12.9489C32.8345 13.089 32.7938 13.2453 32.7919 13.4176V14.1307C32.7919 14.3466 32.8317 14.5331 32.9112 14.6903C32.9927 14.8475 33.1072 14.9688 33.255 15.054C33.4027 15.1392 33.5779 15.1818 33.7805 15.1818C33.915 15.1818 34.0381 15.1629 34.1499 15.125C34.2616 15.0871 34.3572 15.0303 34.4368 14.9545C34.5163 14.8788 34.5769 14.786 34.6186 14.6761L35.7379 14.75C35.6811 15.0189 35.5646 15.2538 35.3885 15.4545C35.2143 15.6534 34.9889 15.8087 34.7124 15.9205C34.4377 16.0303 34.1205 16.0852 33.7607 16.0852ZM37.7635 10.1818V16H36.5533V10.1818H37.7635ZM41.054 11.6364V12.5455H38.4261V11.6364H41.054ZM39.0227 10.5909H40.233V14.6591C40.233 14.7708 40.25 14.858 40.2841 14.9205C40.3182 14.9811 40.3655 15.0237 40.4261 15.0483C40.4886 15.0729 40.5606 15.0852 40.642 15.0852C40.6989 15.0852 40.7557 15.0805 40.8125 15.071C40.8693 15.0597 40.9129 15.0511 40.9432 15.0455L41.1335 15.946C41.0729 15.965 40.9877 15.9867 40.8778 16.0114C40.768 16.0379 40.6345 16.054 40.4773 16.0597C40.1856 16.071 39.9299 16.0322 39.7102 15.9432C39.4924 15.8542 39.3229 15.7159 39.2017 15.5284C39.0805 15.3409 39.0208 15.1042 39.0227 14.8182V10.5909ZM41.8423 16V11.6364H43.0156V12.3977H43.0611C43.1406 12.1269 43.2741 11.9223 43.4616 11.7841C43.6491 11.6439 43.8651 11.5739 44.1094 11.5739C44.17 11.5739 44.2353 11.5777 44.3054 11.5852C44.3755 11.5928 44.437 11.6032 44.4901 11.6165V12.6903C44.4332 12.6733 44.3546 12.6581 44.2543 12.6449C44.1539 12.6316 44.062 12.625 43.9787 12.625C43.8007 12.625 43.6416 12.6638 43.5014 12.7415C43.3632 12.8172 43.2533 12.9233 43.1719 13.0597C43.0923 13.196 43.0526 13.3532 43.0526 13.5312V16H41.8423ZM46.2351 16.0824C45.9567 16.0824 45.7086 16.0341 45.4908 15.9375C45.273 15.839 45.1006 15.6941 44.9737 15.5028C44.8487 15.3097 44.7862 15.0691 44.7862 14.7812C44.7862 14.5388 44.8307 14.3352 44.9197 14.1705C45.0088 14.0057 45.13 13.8731 45.2834 13.7727C45.4368 13.6723 45.611 13.5966 45.8061 13.5455C46.0031 13.4943 46.2095 13.4583 46.4254 13.4375C46.6792 13.411 46.8838 13.3864 47.0391 13.3636C47.1944 13.339 47.3071 13.303 47.3771 13.2557C47.4472 13.2083 47.4822 13.1383 47.4822 13.0455V13.0284C47.4822 12.8485 47.4254 12.7093 47.3118 12.6108C47.2 12.5123 47.041 12.4631 46.8345 12.4631C46.6167 12.4631 46.4434 12.5114 46.3146 12.608C46.1858 12.7027 46.1006 12.822 46.0589 12.9659L44.9396 12.875C44.9964 12.6098 45.1082 12.3807 45.2749 12.1875C45.4415 11.9924 45.6565 11.8428 45.9197 11.7386C46.1849 11.6326 46.4917 11.5795 46.8402 11.5795C47.0826 11.5795 47.3146 11.608 47.5362 11.6648C47.7597 11.7216 47.9576 11.8097 48.13 11.929C48.3042 12.0483 48.4415 12.2017 48.5419 12.3892C48.6423 12.5748 48.6925 12.7973 48.6925 13.0568V16H47.5447V15.3949H47.5107C47.4406 15.5312 47.3468 15.6515 47.2294 15.7557C47.112 15.858 46.9709 15.9384 46.8061 15.9972C46.6413 16.054 46.451 16.0824 46.2351 16.0824ZM46.5817 15.2472C46.7597 15.2472 46.9169 15.2121 47.0533 15.142C47.1896 15.0701 47.2966 14.9735 47.3743 14.8523C47.4519 14.7311 47.4908 14.5937 47.4908 14.4403V13.9773C47.4529 14.0019 47.4008 14.0246 47.3345 14.0455C47.2701 14.0644 47.1972 14.0824 47.1158 14.0994C47.0343 14.1146 46.9529 14.1288 46.8714 14.142C46.79 14.1534 46.7161 14.1638 46.6499 14.1733C46.5078 14.1941 46.3838 14.2273 46.2777 14.2727C46.1716 14.3182 46.0893 14.3797 46.0305 14.4574C45.9718 14.5331 45.9425 14.6278 45.9425 14.7415C45.9425 14.9062 46.0021 15.0322 46.1214 15.1193C46.2427 15.2045 46.3961 15.2472 46.5817 15.2472ZM50.8416 13.4773V16H49.6314V11.6364H50.7848V12.4062H50.8359C50.9325 12.1525 51.0945 11.9517 51.3217 11.804C51.549 11.6544 51.8246 11.5795 52.1484 11.5795C52.4515 11.5795 52.7157 11.6458 52.9411 11.7784C53.1664 11.911 53.3416 12.1004 53.4666 12.3466C53.5916 12.5909 53.6541 12.8826 53.6541 13.2216V16H52.4439V13.4375C52.4458 13.1705 52.3776 12.9621 52.2393 12.8125C52.1011 12.661 51.9107 12.5852 51.6683 12.5852C51.5054 12.5852 51.3615 12.6203 51.2365 12.6903C51.1134 12.7604 51.0168 12.8627 50.9467 12.9972C50.8786 13.1297 50.8435 13.2898 50.8416 13.4773ZM58.5987 16.071C58.2673 16.071 57.9671 15.9858 57.6982 15.8153C57.4311 15.643 57.219 15.3902 57.0618 15.0568C56.9065 14.7216 56.8288 14.3106 56.8288 13.8239C56.8288 13.3239 56.9093 12.9081 57.0703 12.5767C57.2313 12.2434 57.4453 11.9943 57.7124 11.8295C57.9813 11.6629 58.2758 11.5795 58.5959 11.5795C58.8402 11.5795 59.0438 11.6212 59.2067 11.7045C59.3714 11.786 59.504 11.8883 59.6044 12.0114C59.7067 12.1326 59.7843 12.2519 59.8374 12.3693H59.8743V10.1818H61.0817V16H59.8885V15.3011H59.8374C59.7805 15.4223 59.7 15.5426 59.5959 15.6619C59.4936 15.7794 59.3601 15.8769 59.1953 15.9545C59.0324 16.0322 58.8336 16.071 58.5987 16.071ZM58.9822 15.108C59.1773 15.108 59.3421 15.0549 59.4766 14.9489C59.6129 14.8409 59.7171 14.6903 59.7891 14.4972C59.8629 14.304 59.8999 14.0777 59.8999 13.8182C59.8999 13.5587 59.8639 13.3333 59.7919 13.142C59.7199 12.9508 59.6158 12.803 59.4794 12.6989C59.343 12.5947 59.1773 12.5426 58.9822 12.5426C58.7834 12.5426 58.6158 12.5966 58.4794 12.7045C58.343 12.8125 58.2398 12.9621 58.1697 13.1534C58.0997 13.3447 58.0646 13.5663 58.0646 13.8182C58.0646 14.072 58.0997 14.2964 58.1697 14.4915C58.2417 14.6847 58.3449 14.8362 58.4794 14.946C58.6158 15.054 58.7834 15.108 58.9822 15.108ZM64.0653 16.0852C63.6165 16.0852 63.2301 15.9943 62.9062 15.8125C62.5843 15.6288 62.3362 15.3693 62.1619 15.0341C61.9877 14.697 61.9006 14.2983 61.9006 13.8381C61.9006 13.3892 61.9877 12.9953 62.1619 12.6562C62.3362 12.3172 62.5814 12.053 62.8977 11.8636C63.2159 11.6742 63.589 11.5795 64.017 11.5795C64.3049 11.5795 64.5729 11.6259 64.821 11.7188C65.071 11.8097 65.2888 11.947 65.4744 12.1307C65.6619 12.3144 65.8078 12.5455 65.9119 12.8239C66.0161 13.1004 66.0682 13.4242 66.0682 13.7955V14.1278H62.3835V13.3778H64.929C64.929 13.2036 64.8911 13.0492 64.8153 12.9148C64.7396 12.7803 64.6345 12.6752 64.5 12.5994C64.3674 12.5218 64.2131 12.483 64.0369 12.483C63.8532 12.483 63.6903 12.5256 63.5483 12.6108C63.4081 12.6941 63.2983 12.8068 63.2188 12.9489C63.1392 13.089 63.0985 13.2453 63.0966 13.4176V14.1307C63.0966 14.3466 63.1364 14.5331 63.2159 14.6903C63.2973 14.8475 63.4119 14.9688 63.5597 15.054C63.7074 15.1392 63.8826 15.1818 64.0852 15.1818C64.2197 15.1818 64.3428 15.1629 64.4545 15.125C64.5663 15.0871 64.6619 15.0303 64.7415 14.9545C64.821 14.8788 64.8816 14.786 64.9233 14.6761L66.0426 14.75C65.9858 15.0189 65.8693 15.2538 65.6932 15.4545C65.5189 15.6534 65.2936 15.8087 65.017 15.9205C64.7424 16.0303 64.4252 16.0852 64.0653 16.0852ZM70.8089 11.6364L69.2834 16H67.9197L66.3942 11.6364H67.6726L68.5788 14.7585H68.6243L69.5277 11.6364H70.8089Z" fill="white"/>
<path d="M55.3153 16.0739C55.1278 16.0739 54.9669 16.0076 54.8324 15.875C54.6998 15.7405 54.6335 15.5795 54.6335 15.392C54.6335 15.2064 54.6998 15.0473 54.8324 14.9148C54.9669 14.7822 55.1278 14.7159 55.3153 14.7159C55.4972 14.7159 55.6563 14.7822 55.7926 14.9148C55.929 15.0473 55.9972 15.2064 55.9972 15.392C55.9972 15.517 55.965 15.6316 55.9006 15.7358C55.8381 15.8381 55.7557 15.9205 55.6534 15.983C55.5511 16.0436 55.4384 16.0739 55.3153 16.0739Z" fill="#F472B6"/>
</svg>
